# Made in Blockbench 4.1.5
mtllib Lifebuoy.mtl

o cube
v 0.0625 0.1875 -0.125
v 0.0625 0.1875 -0.25
v 0.0625 0.0625 -0.125
v 0.0625 0.0625 -0.25
v -0.25 0.1875 -0.25
v -0.25 0.1875 -0.125
v -0.25 0.0625 -0.25
v -0.25 0.0625 -0.125
vt 0.15625 0.9375
vt 0.3125 0.9375
vt 0.3125 0.875
vt 0.15625 0.875
vt 0.46875 0.625
vt 0.53125 0.625
vt 0.53125 0.5625
vt 0.46875 0.5625
vt 0.15625 0.875
vt 0.3125 0.875
vt 0.3125 0.8125
vt 0.15625 0.8125
vt 0.46875 0.5625
vt 0.53125 0.5625
vt 0.53125 0.5
vt 0.46875 0.5
vt 0.15625 0.75
vt 0 0.75
vt 0 0.8125
vt 0.15625 0.8125
vt 0.3125 0.8125
vt 0.15625 0.8125
vt 0.15625 0.75
vt 0.3125 0.75
vn 0 0 -1
vn 1 0 0
vn 0 0 1
vn -1 0 0
vn 0 1 0
vn 0 -1 0
usemtl m_0
f 4/4/1 7/3/1 5/2/1 2/1/1
f 3/8/2 4/7/2 2/6/2 1/5/2
f 8/12/3 3/11/3 1/10/3 6/9/3
f 7/16/4 8/15/4 6/14/4 5/13/4
f 6/20/5 1/19/5 2/18/5 5/17/5
f 7/24/6 4/23/6 3/22/6 8/21/6
o cube
v -0.2575825214724776 0.1875 -0.1174174785275223
v -0.3825825214724776 0.1875 -0.11741747852752232
v -0.2575825214724776 0.0625 -0.1174174785275223
v -0.3825825214724776 0.0625 -0.11741747852752232
v -0.3825825214724777 0.1875 0.19508252147247768
v -0.2575825214724777 0.1875 0.1950825214724777
v -0.3825825214724777 0.0625 0.19508252147247768
v -0.2575825214724777 0.0625 0.1950825214724777
vt 0 0.75
vt 0.15625 0.75
vt 0.15625 0.6875
vt 0 0.6875
vt 0 0.5
vt 0.0625 0.5
vt 0.0625 0.4375
vt 0 0.4375
vt 0.15625 0.75
vt 0.3125 0.75
vt 0.3125 0.6875
vt 0.15625 0.6875
vt 0.0625 0.5
vt 0.125 0.5
vt 0.125 0.4375
vt 0.0625 0.4375
vt 0.15625 0.625
vt 0 0.625
vt 0 0.6875
vt 0.15625 0.6875
vt 0.46875 1
vt 0.3125 1
vt 0.3125 0.9375
vt 0.46875 0.9375
vn -1 0 -2.220446049250313e-16
vn 2.220446049250313e-16 0 -1
vn 1 0 2.220446049250313e-16
vn -2.220446049250313e-16 0 1
vn 0 1 0
vn 0 -1 0
usemtl m_0
f 12/28/7 15/27/7 13/26/7 10/25/7
f 11/32/8 12/31/8 10/30/8 9/29/8
f 16/36/9 11/35/9 9/34/9 14/33/9
f 15/40/10 16/39/10 14/38/10 13/37/10
f 14/44/11 9/43/11 10/42/11 13/41/11
f 15/48/12 12/47/12 11/46/12 16/45/12
o cube
v -0.16161165235168157 0.186875 -0.16161165235168154
v -0.25 0.186875 -0.24999999999999997
v -0.16161165235168157 0.063125 -0.16161165235168154
v -0.25 0.063125 -0.24999999999999997
v -0.3825825214724776 0.186875 -0.11741747852752232
v -0.2941941738241592 0.186875 -0.02902913087920389
v -0.3825825214724776 0.063125 -0.11741747852752232
v -0.2941941738241592 0.063125 -0.02902913087920389
vt 0.3125 0.75
vt 0.40625 0.75
vt 0.40625 0.6875
vt 0.3125 0.6875
vt 0.125 0.5
vt 0.1875 0.5
vt 0.1875 0.4375
vt 0.125 0.4375
vt 0.3125 0.6875
vt 0.40625 0.6875
vt 0.40625 0.625
vt 0.3125 0.625
vt 0.1875 0.5
vt 0.25 0.5
vt 0.25 0.4375
vt 0.1875 0.4375
vt 0.09375 0.5625
vt 0 0.5625
vt 0 0.625
vt 0.09375 0.625
vt 0.1875 0.625
vt 0.09375 0.625
vt 0.09375 0.5625
vt 0.1875 0.5625
vn -0.7071067811865476 0 -0.7071067811865475
vn 0.7071067811865475 0 -0.7071067811865476
vn 0.7071067811865476 0 0.7071067811865475
vn -0.7071067811865475 0 0.7071067811865476
vn 0 1 0
vn 0 -1 0
usemtl m_0
f 20/52/13 23/51/13 21/50/13 18/49/13
f 19/56/14 20/55/14 18/54/14 17/53/14
f 24/60/15 19/59/15 17/58/15 22/57/15
f 23/64/16 24/63/16 22/62/16 21/61/16
f 22/68/17 17/67/17 18/66/17 21/65/17
f 23/72/18 20/71/18 19/70/18 24/69/18
o cube
v 0.06249999999979411 0.18749976636812188 0.32766504294495535
v 0.06249999999979411 0.18749976636812188 0.20266504294495535
v 0.06249999999979411 0.06249976636812188 0.32766504294495535
v 0.06249999999979411 0.06249976636812188 0.20266504294495535
v -0.2500000000002059 0.18749976636812188 0.20266504294495535
v -0.2500000000002059 0.18749976636812188 0.32766504294495535
v -0.2500000000002059 0.06249976636812188 0.20266504294495535
v -0.2500000000002059 0.06249976636812188 0.32766504294495535
vt 0.3125 0.9375
vt 0.46875 0.9375
vt 0.46875 0.875
vt 0.3125 0.875
vt 0.25 0.5
vt 0.3125 0.5
vt 0.3125 0.4375
vt 0.25 0.4375
vt 0.3125 0.875
vt 0.46875 0.875
vt 0.46875 0.8125
vt 0.3125 0.8125
vt 0.5 0.75
vt 0.5625 0.75
vt 0.5625 0.6875
vt 0.5 0.6875
vt 0.3125 0.625
vt 0.15625 0.625
vt 0.15625 0.6875
vt 0.3125 0.6875
vt 0.46875 0.8125
vt 0.3125 0.8125
vt 0.3125 0.75
vt 0.46875 0.75
vn 0 0 -1
vn 1 0 0
vn 0 0 1
vn -1 0 0
vn 0 1 0
vn 0 -1 0
usemtl m_0
f 28/76/19 31/75/19 29/74/19 26/73/19
f 27/80/20 28/79/20 26/78/20 25/77/20
f 32/84/21 27/83/21 25/82/21 30/81/21
f 31/88/22 32/87/22 30/86/22 29/85/22
f 30/92/23 25/91/23 26/90/23 29/89/23
f 31/96/24 28/95/24 27/94/24 32/93/24
o cube
v 0.19508252147227173 0.186875 0.19508252147247773
v 0.10669417382395327 0.186875 0.10669417382415924
v 0.19508252147227173 0.063125 0.19508252147247773
v 0.10669417382395327 0.063125 0.10669417382415924
v -0.02588834764852435 0.186875 0.23927669529663692
v 0.06249999999979411 0.186875 0.32766504294495535
v -0.02588834764852435 0.063125 0.23927669529663692
v 0.06249999999979411 0.063125 0.32766504294495535
vt 0.1875 0.625
vt 0.28125 0.625
vt 0.28125 0.5625
vt 0.1875 0.5625
vt 0.3125 0.5
vt 0.375 0.5
vt 0.375 0.4375
vt 0.3125 0.4375
vt 0.28125 0.625
vt 0.375 0.625
vt 0.375 0.5625
vt 0.28125 0.5625
vt 0.5 0.6875
vt 0.5625 0.6875
vt 0.5625 0.625
vt 0.5 0.625
vt 0.46875 0.5625
vt 0.375 0.5625
vt 0.375 0.625
vt 0.46875 0.625
vt 0.5 0.75
vt 0.40625 0.75
vt 0.40625 0.6875
vt 0.5 0.6875
vn -0.7071067811865476 0 -0.7071067811865475
vn 0.7071067811865475 0 -0.7071067811865476
vn 0.7071067811865476 0 0.7071067811865475
vn -0.7071067811865475 0 0.7071067811865476
vn 0 1 0
vn 0 -1 0
usemtl m_0
f 36/100/25 39/99/25 37/98/25 34/97/25
f 35/104/26 36/103/26 34/102/26 33/101/26
f 40/108/27 35/107/27 33/106/27 38/105/27
f 39/112/28 40/111/28 38/110/28 37/109/28
f 38/116/29 33/115/29 34/114/29 37/113/29
f 39/120/30 36/119/30 35/118/30 40/117/30
o cube
v 0.19508252147227179 0.18749976636812188 -0.11741747852752228
v 0.07008252147227179 0.18749976636812188 -0.11741747852752231
v 0.19508252147227179 0.06249976636812188 -0.11741747852752228
v 0.07008252147227179 0.06249976636812188 -0.11741747852752231
v 0.07008252147227172 0.18749976636812188 0.19508252147247768
v 0.19508252147227173 0.18749976636812188 0.1950825214724777
v 0.07008252147227172 0.06249976636812188 0.19508252147247768
v 0.19508252147227173 0.06249976636812188 0.1950825214724777
vt 0 1
vt 0.15625 1
vt 0.15625 0.9375
vt 0 0.9375
vt 0.46875 0.875
vt 0.53125 0.875
vt 0.53125 0.8125
vt 0.46875 0.8125
vt 0 0.9375
vt 0.15625 0.9375
vt 0.15625 0.875
vt 0 0.875
vt 0.46875 0.8125
vt 0.53125 0.8125
vt 0.53125 0.75
vt 0.46875 0.75
vt 0.15625 0.8125
vt 0 0.8125
vt 0 0.875
vt 0.15625 0.875
vt 0.3125 1
vt 0.15625 1
vt 0.15625 0.9375
vt 0.3125 0.9375
vn -1 0 -2.220446049250313e-16
vn 2.220446049250313e-16 0 -1
vn 1 0 2.220446049250313e-16
vn -2.220446049250313e-16 0 1
vn 0 1 0
vn 0 -1 0
usemtl m_0
f 44/124/31 47/123/31 45/122/31 42/121/31
f 43/128/32 44/127/32 42/126/32 41/125/32
f 48/132/33 43/131/33 41/130/33 46/129/33
f 47/136/34 48/135/34 46/134/34 45/133/34
f 46/140/35 41/139/35 42/138/35 45/137/35
f 47/144/36 44/143/36 43/142/36 48/141/36
o cube
v 0.10669417324969854 0.18687534551098578 -0.029029131405416908
v 0.19508252089807954 0.18687533871059372 -0.11741747905367264
v 0.10669405945540889 0.06312534551108202 -0.02902923567867194
v 0.19508240710378988 0.06312533871068997 -0.11741758332692764
v 0.06249999942580775 0.18687557234247185 -0.2500000005261503
v -0.025888348222573243 0.1868755791428639 -0.16161165287789458
v 0.06249988563151809 0.06312557234256809 -0.25000010479940526
v -0.0258884620168629 0.06312557914296014 -0.16161175715114956
vt 0.40625 0.6875
vt 0.5 0.6875
vt 0.5 0.625
vt 0.40625 0.625
vt 0.375 0.5
vt 0.4375 0.5
vt 0.4375 0.4375
vt 0.375 0.4375
vt 0 0.5625
vt 0.09375 0.5625
vt 0.09375 0.5
vt 0 0.5
vt 0.4375 0.5
vt 0.5 0.5
vt 0.5 0.4375
vt 0.4375 0.4375
vt 0.1875 0.5
vt 0.09375 0.5
vt 0.09375 0.5625
vt 0.1875 0.5625
vt 0.28125 0.5625
vt 0.1875 0.5625
vt 0.1875 0.5
vt 0.28125 0.5
vn 0.7071067811870474 -5.440313649297552e-8 -0.7071067811860455
vn 0.7071067811854497 -0.0000012460366833052057 0.7071067811865475
vn -0.7071067811870474 5.440313649297552e-8 0.7071067811860455
vn -0.7071067811854497 0.0000012460366833052057 -0.7071067811865475
vn 9.195498151036803e-7 0.9999999999992222 8.426121616409877e-7
vn -9.195498151036803e-7 -0.9999999999992222 -8.426121616409877e-7
usemtl m_0
f 52/148/37 55/147/37 53/146/37 50/145/37
f 51/152/38 52/151/38 50/150/38 49/149/38
f 56/156/39 51/155/39 49/154/39 54/153/39
f 55/160/40 56/159/40 54/158/40 53/157/40
f 54/164/41 49/163/41 50/162/41 53/161/41
f 55/168/42 52/167/42 51/166/42 56/165/42
o cube
v -0.2500000005744138 0.18687532170961357 0.3276650424187907
v -0.1616116529260329 0.18687531490922152 0.23927669477053504
v -0.25000011436870345 0.06312532170970982 0.3276649381455357
v -0.16161176672032254 0.06312531490931775 0.23927659049728003
v -0.2941941743983047 0.18687554854109964 0.10669417329805736
v -0.38258252204668564 0.1868755553414917 0.19508252094631306
v -0.2941942881925943 0.06312554854119587 0.10669406902480233
v -0.38258263584097524 0.06312555534158794 0.19508241667305803
vt 0.28125 0.5625
vt 0.375 0.5625
vt 0.375 0.5
vt 0.28125 0.5
vt 0.5 0.5
vt 0.5625 0.5
vt 0.5625 0.4375
vt 0.5 0.4375
vt 0.375 0.5625
vt 0.46875 0.5625
vt 0.46875 0.5
vt 0.375 0.5
vt 0.53125 0.875
vt 0.59375 0.875
vt 0.59375 0.8125
vt 0.53125 0.8125
vt 0.5625 0.9375
vt 0.46875 0.9375
vt 0.46875 1
vt 0.5625 1
vt 0.5625 0.9375
vt 0.46875 0.9375
vt 0.46875 0.875
vt 0.5625 0.875
vn 0.7071067811870474 -5.440313649297552e-8 -0.7071067811860455
vn 0.7071067811854497 -0.0000012460366833052057 0.7071067811865475
vn -0.7071067811870474 5.440313649297552e-8 0.7071067811860455
vn -0.7071067811854497 0.0000012460366833052057 -0.7071067811865475
vn 9.195498151036803e-7 0.9999999999992222 8.426121616409877e-7
vn -9.195498151036803e-7 -0.9999999999992222 -8.426121616409877e-7
usemtl m_0
f 60/172/43 63/171/43 61/170/43 58/169/43
f 59/176/44 60/175/44 58/174/44 57/173/44
f 64/180/45 59/179/45 57/178/45 62/177/45
f 63/184/46 64/183/46 62/182/46 61/181/46
f 62/188/47 57/187/47 58/186/47 61/185/47
f 63/192/48 60/191/48 59/190/48 64/189/48